<svg width="79" height="54" viewBox="0 0 79 54" fill="none" xmlns="http://www.w3.org/2000/svg">
<path d="M0.00111338 18.1893C0.00690808 17.7865 0.169443 17.4019 0.454199 17.1172C0.738955 16.8325 1.1235 16.6699 1.52617 16.6641L6.87505 16.7932C7.27772 16.799 7.66226 16.9614 7.94701 17.2462C8.23177 17.531 8.3943 17.9156 8.4001 18.3182C8.3943 18.7208 8.23177 19.1054 7.94701 19.3901C7.66226 19.6748 7.27772 19.8374 6.87505 19.8432L1.52617 19.7143C1.32378 19.7221 1.12195 19.688 0.933353 19.6143C0.744757 19.5404 0.573472 19.4283 0.430255 19.2851C0.287038 19.1418 0.174984 18.9707 0.101133 18.782C0.0272826 18.5934 -0.00677054 18.3916 0.00111338 18.1893ZM57.2914 21.116L49.8063 36.0132C50.8658 36.5872 51.7541 37.4319 52.3805 38.4612C53.0069 39.4905 53.3492 40.6676 53.3722 41.8724C53.3722 45.1804 50.1876 48.7463 47.5132 50.5292C46.1431 51.532 44.6438 52.3449 43.0558 52.9457C42.463 53.1224 41.8972 53.3789 41.3737 53.7083L53.5965 53.8372L64.5466 32.3184C66.4585 28.7525 68.2414 25.1866 70.0189 21.4972C70.529 20.4768 73.2035 15.3858 74.5996 12.5824C74.5996 12.4535 74.7286 12.2012 74.7286 12.0722C74.733 11.6407 74.581 11.2224 74.3006 10.8945C74.0201 10.5667 73.6304 10.3516 73.2035 10.2892C65.6904 10.1603 44.6874 10.2892 42.3661 10.2892C40.6841 10.2892 32.1785 10.1603 31.287 10.4182V19.8377C31.287 21.2393 31.287 20.8581 31.4161 21.1104L57.2914 21.116ZM73.2035 42.7582H60.8686L55.3963 53.8372H76.6573C76.8937 53.8493 77.1299 53.8099 77.3496 53.7218C77.5694 53.6338 77.7674 53.4991 77.93 53.3271C78.1047 53.1395 78.2399 52.9188 78.3275 52.678C78.4151 52.4372 78.4534 52.1813 78.4403 51.9253V44.6701C78.4534 44.4142 78.4151 44.1582 78.3275 43.9175C78.2399 43.6766 78.1047 43.4559 77.93 43.2685C77.7674 43.0964 77.5694 42.9617 77.3496 42.8737C77.1299 42.7855 76.8937 42.7461 76.6573 42.7582H73.2035ZM15.1507 0.869791C15.5338 0.803748 15.928 0.881727 16.2571 1.08874C16.5863 1.29575 16.8273 1.61717 16.9337 1.99115L18.055 7.21106C18.1211 7.59429 18.043 7.98829 17.8361 8.31744C17.6291 8.64658 17.3076 8.88758 16.9337 8.99402C16.5505 9.06009 16.1565 8.98218 15.8272 8.77508C15.498 8.56813 15.2572 8.24666 15.1507 7.8727L14.0293 2.65275C13.9706 2.46165 13.9539 2.26014 13.9802 2.06195C14.0064 1.86378 14.0752 1.67359 14.1815 1.50436C14.2879 1.33515 14.4296 1.19086 14.5969 1.08135C14.7641 0.971844 14.9531 0.899678 15.1507 0.869791ZM1.13369 3.28632C1.40935 2.99188 1.78746 2.81438 2.19009 2.79039C2.59273 2.76639 2.98923 2.89774 3.29791 3.15737L11.3325 10.4238C11.6269 10.6995 11.8044 11.0776 11.8284 11.4802C11.8524 11.8828 11.721 12.2794 11.4614 12.5881C11.1857 12.8825 10.8077 13.06 10.405 13.0839C10.0024 13.1079 9.60587 12.9766 9.29719 12.717L1.1449 5.45615C0.868495 5.16366 0.714495 4.77649 0.714495 4.37405C0.714495 3.97161 0.868495 3.58443 1.1449 3.29193L1.13369 3.28632Z" fill="#16B2EF"/>
<path d="M41.7099 38.6875C41.2102 39.2234 40.645 39.6942 40.0279 40.0893C38.0182 41.3657 35.6804 42.0299 33.2997 42.0011C32.0912 42.0286 30.8863 41.8561 29.7338 41.491L52.2732 25.3153C52.5509 25.1322 52.778 24.8821 52.9337 24.5883C53.0896 24.2942 53.1689 23.9659 53.1646 23.6333C53.1403 23.3224 53.0546 23.0194 52.9123 22.7418C51.1536 18.7362 48.2663 15.3296 44.6032 12.9379C40.94 10.5463 36.6596 9.27322 32.285 9.27429C29.3666 9.28021 26.4782 9.86153 23.7848 10.9849C21.0914 12.1083 18.6458 13.7517 16.5883 15.8213C14.5307 17.8909 12.9014 20.3459 11.7937 23.0458C10.6859 25.7456 10.1214 28.6374 10.1325 31.5557C10.1325 43.6495 20.4434 53.7081 33.1765 53.7081C40.8129 53.7081 48.3148 50.2713 51.8919 44.7933C52.5108 43.8494 52.8222 42.7368 52.7834 41.6088C52.8027 40.2908 52.3804 39.0044 51.5838 37.9544C50.7873 36.9044 49.6624 36.151 48.388 35.8143C47.1137 35.4778 45.7635 35.5772 44.5522 36.0969C43.341 36.6166 42.3385 37.5265 41.7044 38.682L41.7099 38.6875ZM22.3328 31.6847C22.3328 25.6967 26.8184 21.3682 32.285 21.3682C34.4135 21.361 36.4805 22.0811 38.144 23.4091L22.6076 34.4824C22.3904 33.5666 22.298 32.6255 22.3328 31.6847Z" fill="white"/>
</svg>
