<svg width="107" height="25" viewBox="0 0 107 25" fill="none" xmlns="http://www.w3.org/2000/svg">
<path d="M0.00046391 10.0788C0.00287837 9.91096 0.0706012 9.75072 0.18925 9.63208C0.307898 9.51344 0.468125 9.44571 0.635902 9.4433L2.86461 9.49707C3.03238 9.49948 3.19261 9.56715 3.31125 9.68585C3.42991 9.80449 3.49762 9.96473 3.50004 10.1325C3.49762 10.3002 3.42991 10.4605 3.31125 10.5791C3.19261 10.6978 3.03238 10.7655 2.86461 10.7679L0.635902 10.7142C0.551576 10.7174 0.467478 10.7033 0.388897 10.6725C0.310316 10.6418 0.238947 10.595 0.179273 10.5354C0.119599 10.4757 0.0729101 10.4044 0.0421389 10.3258C0.0113677 10.2471 -0.00282106 10.1631 0.00046391 10.0788ZM23.8714 11.2983L20.7526 17.5054C21.1941 17.7446 21.5642 18.0966 21.8252 18.5254C22.0862 18.9543 22.2288 19.4448 22.2384 19.9467C22.2384 21.3251 20.9115 22.8109 19.7972 23.5538C19.2263 23.9716 18.6016 24.3103 17.9399 24.5606C17.6929 24.6343 17.4572 24.7411 17.2391 24.8784L22.3319 24.9321L26.8944 15.9659C27.691 14.4801 28.4339 12.9943 29.1745 11.4571C29.3871 11.0319 30.5014 8.91065 31.0831 7.74259C31.0831 7.68887 31.1369 7.58374 31.1369 7.52998C31.1388 7.35022 31.0754 7.17591 30.9586 7.03927C30.8417 6.90269 30.6793 6.81309 30.5014 6.78707C27.371 6.73336 18.6197 6.78707 17.6526 6.78707C16.9517 6.78707 13.4077 6.73336 13.0363 6.84084V10.7656C13.0363 11.3496 13.0363 11.1908 13.09 11.2959L23.8714 11.2983ZM30.5014 20.3158H25.3619L23.0818 24.9321H31.9405C32.0391 24.9371 32.1374 24.9207 32.229 24.884C32.3206 24.8473 32.4031 24.7912 32.4708 24.7195C32.5436 24.6414 32.6 24.5494 32.6365 24.4491C32.673 24.3488 32.6889 24.2421 32.6834 24.1355V21.1125C32.6889 21.0058 32.673 20.8992 32.6365 20.7989C32.6 20.6985 32.5436 20.6066 32.4708 20.5284C32.4031 20.4567 32.3206 20.4006 32.229 20.3639C32.1374 20.3272 32.0391 20.3108 31.9405 20.3158H30.5014ZM6.31281 2.86232C6.47243 2.83481 6.63665 2.8673 6.7738 2.95355C6.91094 3.03981 7.01136 3.17373 7.05571 3.32956L7.52292 5.50452C7.55045 5.6642 7.51793 5.82837 7.4317 5.96551C7.34547 6.10265 7.21152 6.20307 7.05571 6.24742C6.89602 6.27495 6.73186 6.24249 6.59466 6.1562C6.45752 6.06996 6.35715 5.93602 6.31281 5.7802L5.84553 3.60523C5.82109 3.5256 5.81414 3.44164 5.82507 3.35906C5.836 3.27649 5.86465 3.19724 5.90895 3.12673C5.9533 3.05622 6.01234 2.9961 6.08203 2.95047C6.15172 2.90485 6.23044 2.87478 6.31281 2.86232ZM0.472369 3.86921C0.58723 3.74653 0.744775 3.67257 0.912536 3.66257C1.0803 3.65257 1.24551 3.7073 1.37413 3.81548L4.72186 6.84314C4.84454 6.95802 4.9185 7.11558 4.9285 7.28333C4.93849 7.45109 4.88377 7.61632 4.77559 7.74494C4.66073 7.86762 4.50319 7.94157 4.33542 7.95155C4.16765 7.96153 4.00244 7.90681 3.87383 7.79865L0.477042 4.77331C0.361873 4.65144 0.297706 4.49011 0.297706 4.32243C0.297706 4.15475 0.361873 3.99342 0.477042 3.87155L0.472369 3.86921Z" fill="#16B2EF"/>
<path d="M17.3791 18.6198C17.1709 18.843 16.9354 19.0392 16.6783 19.2038C15.8409 19.7357 14.8668 20.0124 13.8749 20.0004C13.3713 20.0119 12.8693 19.94 12.3891 19.7879L21.7805 13.048C21.8962 12.9717 21.9908 12.8675 22.0557 12.7451C22.1206 12.6226 22.1537 12.4858 22.1519 12.3472C22.1418 12.2176 22.1061 12.0914 22.0468 11.9757C21.314 10.3067 20.1109 8.88732 18.5847 7.89077C17.0583 6.89427 15.2749 6.36381 13.4521 6.36426C12.2361 6.36673 11.0326 6.60894 9.91032 7.07699C8.78806 7.54511 7.76908 8.22987 6.9118 9.09219C6.05447 9.95452 5.3756 10.9774 4.91403 12.1024C4.45247 13.2273 4.21726 14.4322 4.22187 15.6482C4.22187 20.6873 8.5181 24.8784 13.8235 24.8784C17.0054 24.8784 20.1312 23.4463 21.6216 21.1639C21.8795 20.7705 22.0092 20.307 21.9931 19.837C22.0011 19.2878 21.8252 18.7518 21.4932 18.3143C21.1614 17.8768 20.6926 17.5629 20.1617 17.4226C19.6307 17.2824 19.0681 17.3238 18.5634 17.5403C18.0587 17.7569 17.641 18.136 17.3768 18.6175L17.3791 18.6198ZM9.30535 15.7019C9.30535 13.2069 11.1743 11.4034 13.4521 11.4034C14.339 11.4004 15.2002 11.7004 15.8933 12.2538L9.41984 16.8676C9.32934 16.486 9.29082 16.0939 9.30535 15.7019Z" fill="white"/>
<path d="M101.015 17.7856C101.015 18.3158 101.12 18.7411 101.387 19.005C101.599 19.3228 102.022 19.4302 102.554 19.4302H105.358C105.615 19.4356 105.863 19.5297 106.059 19.6965C106.152 19.7865 106.225 19.896 106.271 20.0171C106.317 20.1383 106.335 20.2681 106.325 20.3974V23.9507C106.32 24.208 106.226 24.4556 106.059 24.6515C105.969 24.7449 105.86 24.8172 105.739 24.8632C105.617 24.9093 105.487 24.9279 105.358 24.9179H102.022C101.012 24.9398 100.006 24.7816 99.0502 24.4506C98.2042 24.1519 97.4282 23.6827 96.7705 23.0723C96.1285 22.4593 95.6222 21.7183 95.2847 20.8973C94.9079 19.9802 94.728 18.994 94.7565 18.0028V12.1087H92.1656C91.9083 12.1033 91.661 12.0093 91.4648 11.8423C91.3717 11.7524 91.2994 11.643 91.2534 11.5217C91.2074 11.4006 91.1884 11.2707 91.1985 11.1415V7.59985C91.2041 7.34255 91.2983 7.09496 91.4648 6.899C91.5551 6.80564 91.6644 6.73337 91.7855 6.68734C91.9066 6.64131 92.0367 6.62264 92.1656 6.63268H94.7661V0.969828C94.7711 0.712504 94.8653 0.464924 95.0324 0.26898C95.1221 0.175627 95.2315 0.103334 95.3531 0.0572883C95.4742 0.011243 95.6037 -0.00741353 95.7333 0.00265723H100.109C100.366 0.00800988 100.613 0.10209 100.81 0.26898C100.903 0.358913 100.975 0.468392 101.022 0.589563C101.068 0.710737 101.086 0.840597 101.076 0.969828V6.69811H105.047C105.305 6.70349 105.552 6.79757 105.748 6.96443C105.842 7.05436 105.914 7.16386 105.96 7.28503C106.006 7.40619 106.025 7.53604 106.014 7.66528V11.2069C106.009 11.4642 105.915 11.7118 105.748 11.9078C105.658 12.0011 105.549 12.0734 105.428 12.1194C105.306 12.1655 105.177 12.1841 105.047 12.1741H101.076L101.022 17.7972L101.015 17.7856ZM90.8834 23.939C90.8778 24.1964 90.7836 24.4439 90.6171 24.6399C90.5268 24.7332 90.4174 24.8056 90.2963 24.8516C90.1752 24.8976 90.0452 24.9163 89.9162 24.9062H85.5238C85.267 24.9009 85.0192 24.8068 84.823 24.6399C84.7299 24.5499 84.6576 24.4404 84.6116 24.3193C84.5656 24.1981 84.5471 24.0683 84.5567 23.939V15.0803C84.5937 14.205 84.3374 13.3425 83.8278 12.6297C83.3607 12.0456 82.555 11.7279 81.492 11.7279C80.4289 11.7279 79.6883 12.0456 79.2117 12.6297C78.7351 13.2137 78.4688 14.0617 78.4688 15.0709V23.9297C78.4638 24.187 78.3696 24.4346 78.2025 24.6305C78.1128 24.7239 78.0029 24.7962 77.8818 24.8422C77.7607 24.8883 77.6311 24.9069 77.5016 24.8968H73.1121C72.8547 24.8915 72.6069 24.7974 72.4112 24.6305C72.3176 24.5406 72.2458 24.4311 72.1993 24.31C72.1533 24.1888 72.1348 24.0589 72.1449 23.9297V7.65362C72.1505 7.39627 72.2441 7.14873 72.4112 6.95277C72.5009 6.85941 72.6108 6.78709 72.7319 6.74105C72.853 6.69502 72.9825 6.67635 73.1121 6.68644H77.3547C77.6121 6.69177 77.8593 6.78585 78.0556 6.95277C78.1487 7.0427 78.221 7.15214 78.267 7.27336C78.3129 7.39453 78.332 7.52438 78.3219 7.65362V8.44788C78.5344 8.23532 78.7469 7.98066 79.0227 7.70498C79.3244 7.43675 79.6586 7.20754 80.018 7.02285C80.4502 6.79606 80.915 6.63839 81.3961 6.55558C82.0061 6.42018 82.6285 6.34891 83.2531 6.34303C84.2976 6.33024 85.3366 6.48808 86.3301 6.81024C87.2238 7.0935 88.0379 7.58241 88.7085 8.23762C89.4127 8.9341 89.9403 9.78869 90.2476 10.7303C90.6524 11.8707 90.8497 13.0739 90.8318 14.2837L90.8856 23.939H90.8834ZM70.8834 14.1087C70.8834 14.4802 70.9372 14.9053 70.9372 15.4357C70.9506 15.8787 70.9327 16.3221 70.8834 16.7626C70.8391 17.8502 70.5677 18.9166 70.0866 19.8931C69.6095 20.866 68.963 21.7464 68.1781 22.4932C67.3152 23.2702 66.3043 23.8653 65.2065 24.243C62.6946 25.0917 59.9736 25.0917 57.4618 24.243C56.3696 23.8529 55.3614 23.2592 54.4905 22.4932C53.6775 21.7713 53.0269 20.885 52.5818 19.8931C52.1312 18.9056 51.8614 17.8453 51.7852 16.7626C51.7852 16.3911 51.7314 15.966 51.7314 15.4357C51.7181 14.9926 51.7361 14.5492 51.7852 14.1087C51.7854 13.0216 52.0398 11.9496 52.5281 10.9783C53.0065 9.99192 53.6731 9.10863 54.4905 8.37812C55.3614 7.61217 56.3696 7.01841 57.4618 6.62829C59.9736 5.77965 62.6946 5.77965 65.2065 6.62829C66.2987 7.01841 67.3073 7.61217 68.1781 8.37812C69.0068 9.08547 69.6605 9.97555 70.0866 10.9783C70.5677 11.9548 70.8391 13.0211 70.8834 14.1087ZM58.0976 16.6552C58.1503 17.5569 58.4688 18.2469 59.053 18.725C59.7157 19.2079 60.5141 19.468 61.3344 19.468C62.1541 19.468 62.9531 19.2079 63.6153 18.725C63.9096 18.465 64.1462 18.1468 64.3111 17.7905C64.4753 17.4342 64.5639 17.0475 64.5712 16.6552C64.6166 16.2676 64.6346 15.8772 64.6245 15.487C64.6357 15.0969 64.6178 14.7065 64.5712 14.319C64.518 13.4172 64.1995 12.7273 63.6153 12.2491C62.9531 11.7663 62.1541 11.5061 61.3344 11.5061C60.5141 11.5061 59.7157 11.7663 59.053 12.2491C58.7592 12.5091 58.522 12.8273 58.3578 13.1837C58.1935 13.54 58.1049 13.9266 58.0976 14.319C58.0516 14.7066 58.0337 15.0969 58.0438 15.487C58.046 15.9123 58.0998 16.2837 58.0998 16.6552H58.0976ZM39.0554 14.2162C39.0086 14.6209 38.9907 15.0284 39.0017 15.4357C38.9894 15.843 39.0073 16.2506 39.0554 16.6552C39.0627 17.0397 39.1517 17.4183 39.3164 17.7659C39.4812 18.1135 39.7179 18.4221 40.0109 18.6713C40.6238 19.2133 41.4219 19.4985 42.2396 19.4679C43.0354 19.4679 43.6187 19.362 43.9894 19.1502C44.3947 18.9379 44.7407 18.628 44.9962 18.2484C45.0957 18.0589 45.2421 17.898 45.4215 17.7812C45.6071 17.6481 45.8285 17.5741 46.0569 17.5686H50.6194C50.8768 17.5739 51.1243 17.668 51.3203 17.8349C51.4136 17.9248 51.4859 18.0343 51.532 18.1555C51.578 18.2766 51.5967 18.4065 51.5866 18.5357C51.5866 18.9072 51.4278 19.4375 51.1194 20.1711C50.8531 20.914 50.3227 21.6032 49.6336 22.3461C48.8159 23.1256 47.8668 23.7544 46.8302 24.2033C45.6621 24.7336 44.1249 24.9999 42.2676 24.9999C41.0238 25.0043 39.7875 24.8071 38.6068 24.4159C37.5176 24.067 36.501 23.5224 35.6072 22.8086C34.7522 22.1223 34.063 21.2519 33.5911 20.2622C33.0867 19.2161 32.7983 18.0791 32.7431 16.9191C32.7431 16.5477 32.6893 16.1225 32.6893 15.5408C32.675 15.0807 32.693 14.6201 32.7431 14.1624C32.7724 12.9987 33.0622 11.8564 33.5911 10.8194C34.063 9.82972 34.7522 8.95926 35.6072 8.27299C36.4936 7.57074 37.4995 7.03417 38.5765 6.68907C39.7572 6.29788 40.9934 6.10064 42.2373 6.10501C44.0945 6.10501 45.5803 6.37133 46.7998 6.90162C47.8365 7.35056 48.7855 7.97936 49.6032 8.75888C50.2332 9.38202 50.7376 10.1204 51.089 10.9339C51.2936 11.4638 51.45 12.0112 51.5562 12.5692C51.5663 12.6984 51.5476 12.8283 51.5016 12.9495C51.4556 13.0706 51.3832 13.1801 51.2899 13.2701C51.0611 13.3317 50.8259 13.367 50.589 13.3752H46.0569C45.9421 13.3849 45.8265 13.371 45.7172 13.3345C45.6079 13.2979 45.5073 13.2394 45.4215 13.1626C45.2626 13.0037 45.1551 12.8448 44.9962 12.6954C44.7407 12.3158 44.3947 12.0059 43.9894 11.7936C43.4376 11.5568 42.8394 11.4481 42.2396 11.4759C41.2849 11.4759 40.542 11.7414 40.0109 12.2725C39.7213 12.5088 39.486 12.8047 39.3212 13.1401C39.1563 13.4755 39.0656 13.8426 39.0554 14.2162Z" fill="white"/>
</svg>
