<svg width="39" height="32" viewBox="0 0 39 32" fill="none" xmlns="http://www.w3.org/2000/svg">
<path d="M0 21.4273C0 26.9721 2.11454 30.3554 6.34361 31.5771C7.28341 31.859 8.2232 32 9.163 32C12.7342 32 15.2717 30.3084 16.7753 26.9251C17.2452 25.7034 17.4802 24.4816 17.4802 23.2599C17.4802 19.5007 15.6946 16.8693 12.1233 15.3656C11.5595 15.1777 11.0426 15.0367 10.5727 14.9427C8.41116 14.2849 7.28341 13.2511 7.18943 11.8414C7.18943 9.20999 8.88106 6.10866 12.2643 2.53745C12.4523 2.34949 12.5932 2.20852 12.6872 2.11454L9.72687 0C4.18209 5.82673 0.986784 12.1233 0.140969 18.8899C0.0469897 19.8297 0 20.6755 0 21.4273ZM21.1454 21.4273C21.1454 26.7841 23.1659 30.1204 27.207 31.4361C28.2408 31.812 29.3216 32 30.4493 32C33.9266 32 36.417 30.4023 37.9207 27.207C38.4846 25.8913 38.7665 24.5756 38.7665 23.2599C38.7665 19.5007 36.9809 16.8693 33.4097 15.3656C32.8458 15.1777 32.3289 15.0367 31.859 14.9427C29.6035 14.2849 28.4288 13.2511 28.3348 11.8414C28.3348 9.30396 30.0734 6.20264 33.5507 2.53745C33.7386 2.34949 33.8796 2.20852 33.9736 2.11454L31.0132 0C25.3745 5.82673 22.1322 12.1233 21.2863 18.8899C21.1924 19.7357 21.1454 20.5815 21.1454 21.4273Z" fill="#9FE4FF"/>
</svg>
