<svg width="24" height="24" viewBox="0 0 24 24" fill="none" xmlns="http://www.w3.org/2000/svg">
<path fill-rule="evenodd" clip-rule="evenodd" d="M22.1671 18.1421C22.4827 18.4577 23.0222 18.2331 23.0206 17.7868L23.004 13.1053V5.52632C23.004 4.13107 21.8729 3 20.4777 3H8.68818C7.29294 3 6.16187 4.13107 6.16187 5.52632V9H13C14.6569 9 16 10.3431 16 12V15.6316H19.6565L22.1671 18.1421Z" fill="white"/>
<path opacity="0.3" fill-rule="evenodd" clip-rule="evenodd" d="M1.98511 18V13C1.98511 11.8954 2.88054 11 3.98511 11H11.9851C13.0897 11 13.9851 11.8954 13.9851 13V18C13.9851 19.1046 13.0897 20 11.9851 20H4.10084L2.85699 21.1905C2.53898 21.4949 2.01126 21.2695 2.01126 20.8293V18.3243C1.99405 18.2187 1.98511 18.1104 1.98511 18ZM6.00003 14.5C6.00003 14.2239 6.22388 14 6.50003 14H11.5C11.7762 14 12 14.2239 12 14.5C12 14.7761 11.7762 15 11.5 15H6.50003C6.22388 15 6.00003 14.7761 6.00003 14.5ZM9.50003 16C9.22388 16 9.00003 16.2239 9.00003 16.5C9.00003 16.7761 9.22388 17 9.50003 17H11.5C11.7762 17 12 16.7761 12 16.5C12 16.2239 11.7762 16 11.5 16H9.50003Z" fill="white"/>
</svg>
