<svg width="24" height="24" viewBox="0 0 24 24" fill="none" xmlns="http://www.w3.org/2000/svg">
<path opacity="0.3" fill-rule="evenodd" clip-rule="evenodd" d="M5 3C5 2.44771 5.44772 2 6 2H18C18.5523 2 19 2.44772 19 3V12C19 12.5523 18.5523 13 18 13H6C5.44772 13 5 12.5523 5 12V3ZM7 5.5C7 5.22386 7.22386 5 7.5 5H13.5C13.7761 5 14 5.22386 14 5.5C14 5.77614 13.7761 6 13.5 6H7.5C7.22386 6 7 5.77614 7 5.5ZM7.5 7C7.22386 7 7 7.22386 7 7.5C7 7.77614 7.22386 8 7.5 8H10.5C10.7761 8 11 7.77614 11 7.5C11 7.22386 10.7761 7 10.5 7H7.5Z" fill="#16B2EF"/>
<path fill-rule="evenodd" clip-rule="evenodd" d="M3 6.97789C3 6.57001 3.46208 6.33374 3.79275 6.57255L12 12.5L20.2073 6.57255C20.5379 6.33374 21 6.57001 21 6.97789V17C21 18.1046 20.1046 19 19 19H5C3.89543 19 3 18.1046 3 17V6.97789Z" fill="#16B2EF"/>
</svg>
