<svg width="24" height="24" viewBox="0 0 24 24" fill="none" xmlns="http://www.w3.org/2000/svg">
<path opacity="0.3" fill-rule="evenodd" clip-rule="evenodd" d="M3.87663 3.74565C3.34317 3.60271 2.79483 3.91929 2.65189 4.45276L0.0636961 14.112C-0.0792456 14.6455 0.237337 15.1938 0.770803 15.3368L19.1234 20.2543C19.6569 20.3973 20.2052 20.0807 20.3481 19.5472L22.9363 9.88796C23.0793 9.35449 22.7627 8.80615 22.2292 8.66321L3.87663 3.74565ZM15.3638 13.0353C14.7921 15.1692 12.5987 16.4355 10.4648 15.8638C8.33098 15.292 7.06465 13.0987 7.63642 10.9648C8.20818 8.83093 10.4015 7.5646 12.5354 8.13637C14.6693 8.70813 15.9356 10.9015 15.3638 13.0353Z" fill="white"/>
<path fill-rule="evenodd" clip-rule="evenodd" d="M2 6C1.44772 6 1 6.44772 1 7V17C1 17.5523 1.44772 18 2 18H21C21.5523 18 22 17.5523 22 17V7C22 6.44772 21.5523 6 21 6H2ZM15.5 12C15.5 14.2091 13.7091 16 11.5 16C9.29086 16 7.5 14.2091 7.5 12C7.5 9.79086 9.29086 8 11.5 8C13.7091 8 15.5 9.79086 15.5 12ZM11.5 14C12.6046 14 13.5 13.1046 13.5 12C13.5 10.8954 12.6046 10 11.5 10C10.3954 10 9.5 10.8954 9.5 12C9.5 13.1046 10.3954 14 11.5 14Z" fill="white"/>
</svg>
